<svg xmlns="http://www.w3.org/2000/svg" width="32" height="32" viewBox="0 0 32 32" fill="none">
  <g filter="drop-shadow(2px 3px 1px rgba(9, 20, 38, 0.25))">
    <!-- Eraser -->
    <path d="M 17 7 L 21 3 L 23 5 L 19 9 Z" fill="#ffb3d9" />
    <path d="M 19 9 L 23 5 L 27 9 L 23 13 Z" fill="#ffd8ed" />
    <path d="M 23 13 L 27 9 L 29 11 L 25 15 Z" fill="#e6a8cb" />
    
    <!-- Metal Band -->
    <path d="M 14 10 L 17 7 L 19 9 L 16 12 Z" fill="#dbdad6" />
    <path d="M 16 12 L 19 9 L 23 13 L 20 16 Z" fill="#f0efed" />
    <path d="M 20 16 L 23 13 L 25 15 L 22 18 Z" fill="#a3a29f" />
    
    <!-- Ridges on Metal Band -->
    <line x1="15.5" y1="8.5" x2="23.5" y2="16.5" stroke="#a3a29f" stroke-width="0.5"/>
    <line x1="15" y1="9" x2="23" y2="17" stroke="#dbdad6" stroke-width="0.5"/>
    
    <!-- Body -->
    <path d="M 4 20 L 14 10 L 16 12 L 6 22 Z" fill="#e0ce5e" />
    <path d="M 6 22 L 16 12 L 20 16 L 10 26 Z" fill="#f2e580" />
    <path d="M 10 26 L 20 16 L 22 18 L 12 28 Z" fill="#d6c85c" />
    
    <!-- Wood -->
    <path d="M 2 30 L 4 20 L 6 22 Z" fill="#ebd5b7" />
    <path d="M 2 30 L 6 22 L 10 26 Z" fill="#faf9f5" />
    <path d="M 2 30 L 10 26 L 12 28 Z" fill="#cfae82" />
    
    <!-- Lead -->
    <path d="M 2 30 L 2.6 27 L 3.2 27.6 Z" fill="#1e293b" />
    <path d="M 2 30 L 3.2 27.6 L 4.4 28.8 Z" fill="#091426" />
    <path d="M 2 30 L 4.4 28.8 L 5 29.4 Z" fill="#000000" />
    
    <!-- Ink Outline for sketchy feel -->
    <path d="M 2 30 L 4 20 L 14 10 L 17 7 L 21 3 L 29 11 L 25 15 L 22 18 L 12 28 Z" stroke="#091426" stroke-width="1.5" stroke-linejoin="round"/>
    
    <!-- Inner lines for the sketchy feel -->
    <path d="M 6 22 L 16 12 M 10 26 L 20 16 M 6 22 L 2 30 M 10 26 L 2 30 M 17 7 L 25 15 M 14 10 L 22 18" stroke="#091426" stroke-width="1" stroke-linecap="round" opacity="0.8"/>
  </g>
</svg>
