<svg xmlns="http://www.w3.org/2000/svg" viewBox="0 0 64 64" fill="none">
  <!-- Highlighter background -->
  <path d="M 12 18 Q 32 14, 52 20 Q 56 40, 50 54 Q 30 58, 14 50 Q 8 30, 12 18 Z" fill="#f2e580" />
  <!-- Secondary background for depth -->
  <path d="M 16 12 Q 36 10, 50 16 Q 58 36, 52 50 Q 32 54, 18 48 Q 12 30, 16 12 Z" fill="#ffd8ed" opacity="0.6"/>
  
  <!-- Sketchy 'Q' Base -->
  <path d="M 32 18 C 22 18 16 26 16 34 C 16 42 22 50 32 50 C 42 50 48 42 48 34 C 48 26 42 18 32 18 Z" stroke="#091426" stroke-width="5" stroke-linecap="round" stroke-linejoin="round"/>
  <!-- Sketchy 'Q' offset line -->
  <path d="M 31 20 C 23 20 18 27 18 35 C 18 41 23 48 31 48 C 39 48 46 41 46 35 C 46 27 39 20 31 20 Z" stroke="#091426" stroke-width="2" stroke-linecap="round" stroke-linejoin="round" opacity="0.8"/>
  
  <!-- 'Q' tail -->
  <path d="M 38 42 L 52 56" stroke="#091426" stroke-width="6" stroke-linecap="round" stroke-linejoin="round"/>
  <path d="M 40 44 L 50 54" stroke="#091426" stroke-width="2" stroke-linecap="round" stroke-linejoin="round" opacity="0.8"/>
</svg>
